<svg width="118" height="21" viewBox="0 0 118 21" fill="none" xmlns="http://www.w3.org/2000/svg">
<path d="M12.928 3.816H8.756C8.68133 5.58933 8.59733 7.204 8.504 8.66C8.41067 10.116 8.28 11.432 8.112 12.608C7.96267 13.7653 7.75733 14.792 7.496 15.688C7.23467 16.584 6.89867 17.3587 6.488 18.012C6.22667 18.4413 5.928 18.796 5.592 19.076C5.27467 19.356 4.93867 19.58 4.584 19.748C4.22933 19.916 3.87467 20.028 3.52 20.084C3.184 20.1587 2.86667 20.196 2.568 20.196C2.13867 20.196 1.77467 20.1587 1.476 20.084C1.196 20.028 0.916 19.9347 0.636 19.804L1.056 16.5C1.168 16.5373 1.28 16.5653 1.392 16.584C1.504 16.6027 1.616 16.612 1.728 16.612C2.02667 16.612 2.316 16.5373 2.596 16.388C2.89467 16.2387 3.14667 15.9867 3.352 15.632C3.632 15.2213 3.87467 14.624 4.08 13.84C4.28533 13.0373 4.46267 12.02 4.612 10.788C4.78 9.556 4.91067 8.09067 5.004 6.392C5.09733 4.67467 5.16267 2.67733 5.2 0.399999H16.764V20H12.928V3.816ZM19.5093 10.2C19.5093 6.93333 20.228 4.42267 21.6653 2.668C23.1026 0.894666 25.156 0.0079987 27.8253 0.0079987C29.2253 0.0079987 30.448 0.250666 31.4933 0.735999C32.5386 1.22133 33.4066 1.912 34.0973 2.808C34.788 3.704 35.3013 4.77733 35.6373 6.028C35.9733 7.27867 36.1413 8.66933 36.1413 10.2C36.1413 13.4667 35.4133 15.9867 33.9573 17.76C32.52 19.5147 30.476 20.392 27.8253 20.392C26.4066 20.392 25.1746 20.1493 24.1293 19.664C23.084 19.1787 22.216 18.488 21.5253 17.592C20.8533 16.696 20.3493 15.6227 20.0133 14.372C19.6773 13.1213 19.5093 11.7307 19.5093 10.2ZM23.5413 10.2C23.5413 11.1893 23.6253 12.104 23.7933 12.944C23.9613 13.7653 24.2133 14.4747 24.5493 15.072C24.904 15.6693 25.352 16.136 25.8933 16.472C26.4346 16.808 27.0786 16.976 27.8253 16.976C29.188 16.976 30.2426 16.444 30.9893 15.38C31.736 14.316 32.1093 12.5893 32.1093 10.2C32.1093 9.248 32.0253 8.36133 31.8573 7.54C31.708 6.71867 31.4653 6 31.1293 5.384C30.7933 4.768 30.3546 4.292 29.8133 3.956C29.272 3.60133 28.6093 3.424 27.8253 3.424C26.4626 3.424 25.408 3.97467 24.6613 5.076C23.9146 6.15867 23.5413 7.86667 23.5413 10.2ZM50.2791 3.816H42.7191V20H38.8831V0.399999H50.2791V3.816ZM50.4898 10.2C50.4898 6.93333 51.2084 4.42267 52.6458 2.668C54.0831 0.894666 56.1364 0.0079987 58.8058 0.0079987C60.2058 0.0079987 61.4284 0.250666 62.4738 0.735999C63.5191 1.22133 64.3871 1.912 65.0778 2.808C65.7684 3.704 66.2818 4.77733 66.6178 6.028C66.9538 7.27867 67.1218 8.66933 67.1218 10.2C67.1218 13.4667 66.3938 15.9867 64.9378 17.76C63.5004 19.5147 61.4564 20.392 58.8058 20.392C57.3871 20.392 56.1551 20.1493 55.1098 19.664C54.0644 19.1787 53.1964 18.488 52.5058 17.592C51.8338 16.696 51.3298 15.6227 50.9938 14.372C50.6578 13.1213 50.4898 11.7307 50.4898 10.2ZM54.5218 10.2C54.5218 11.1893 54.6058 12.104 54.7738 12.944C54.9418 13.7653 55.1938 14.4747 55.5298 15.072C55.8844 15.6693 56.3324 16.136 56.8738 16.472C57.4151 16.808 58.0591 16.976 58.8058 16.976C60.1684 16.976 61.2231 16.444 61.9698 15.38C62.7164 14.316 63.0898 12.5893 63.0898 10.2C63.0898 9.248 63.0058 8.36133 62.8378 7.54C62.6884 6.71867 62.4458 6 62.1098 5.384C61.7738 4.768 61.3351 4.292 60.7938 3.956C60.2524 3.60133 59.5898 3.424 58.8058 3.424C57.4431 3.424 56.3884 3.97467 55.6418 5.076C54.8951 6.15867 54.5218 7.86667 54.5218 10.2ZM82.6858 3.816H76.9738V20H73.1378V3.816H67.3978V0.399999H82.6858V3.816ZM96.1079 9.136L96.3319 6.588H96.1919L94.8759 9.22L87.5679 20H84.6839V0.399999H88.5199V11.068L88.2399 13.7H88.4079L89.7799 10.984L97.0879 0.399999H99.9439V20H96.1079V9.136ZM114.028 3.816H107.168V20H103.332V0.399999H117.864V20H114.028V3.816Z" fill="white"/>
</svg>
